<svg width="1200" height="630" viewBox="0 0 1200 630" fill="none" xmlns="http://www.w3.org/2000/svg">
  <rect width="1200" height="630" fill="#09090b"/>
  <rect width="1200" height="630" fill="url(#paint0_radial_og)" fill-opacity="0.3"/>
  
  <g transform="translate(100, 215)">
    <!-- Logo Icon -->
    <rect width="200" height="200" rx="40" fill="#ca8a04"/>
    <path d="M100 45C75.8375 45 55 64.5875 55 88.75C55 98.125 58.125 107.5 64.375 113.75C64.375 116.875 61.25 126.25 61.25 132.5C61.25 138.75 67.5 145 73.75 145H126.25C132.5 145 138.75 138.75 138.75 132.5C138.75 126.25 135.625 116.875 135.625 113.75C141.875 107.5 145 98.125 145 88.75C145 64.5875 124.162 45 100 45Z" fill="white"/>
    <circle cx="100" cy="88.75" r="12" fill="#ca8a04"/>
    
    <!-- Text -->
    <g transform="translate(240, 45)">
      <text x="0" y="80" fill="white" font-family="Inter, sans-serif" font-weight="900" font-size="120">Chef<tspan fill="#ca8a04">OS</tspan></text>
      <text x="5" y="140" fill="#a1a1aa" font-family="Inter, sans-serif" font-weight="600" font-size="32" letter-spacing="0.2em">SMART RESTAURANT OS</text>
    </g>
  </g>

  <defs>
    <radialGradient id="paint0_radial_og" cx="0" cy="0" r="1" gradientUnits="userSpaceOnUse" gradientTransform="translate(600 315) rotate(90) scale(400 600)">
      <stop stop-color="#ca8a04"/>
      <stop offset="1" stop-color="#ca8a04" stop-opacity="0"/>
    </radialGradient>
  </defs>
</svg>
